<svg xmlns="http://www.w3.org/2000/svg" version="1.1" xmlns:xlink="http://www.w3.org/1999/xlink" xmlns:svgjs="http://svgjs.dev/svgjs" width="2000" height="2250" viewBox="0 0 2000 2250"><g transform="matrix(1,0,0,1,0,0)"><svg viewBox="0 0 320 360" data-background-color="#ffffff" preserveAspectRatio="xMidYMid meet" height="2250" width="2000" xmlns="http://www.w3.org/2000/svg" xmlns:xlink="http://www.w3.org/1999/xlink"><g id="tight-bounds" transform="matrix(1,0,0,1,0,0)"><svg viewBox="0 0 320 360" height="360" width="320"><rect width="320" height="360" fill="url(#8c017774-043a-4187-8f1e-848d5cbcf94c)" mask="url(#c2d809f0-6b71-45f6-ada0-5fbe71f02acf)" data-fill-palette-color="tertiary"></rect><g><svg></svg></g><g><svg viewBox="0 0 320 360" height="360" width="320"><g><path d="M165.217 303.356c-1.404-1.755-2.809-0.702-2.808-1.755-8.426 2.106-24.223-3.511-30.894-2.809 1.404-2.106-2.106-1.755-2.106-3.159-1.404 2.106-2.809 0-4.915 0.702-2.106-5.266-10.532-1.404-11.585-8.075-4.915 0-6.67-2.809-11.586-5.617 0.351-0.351 0.702-0.351 1.054-0.702-2.457-0.351-2.457-1.755-4.564-1.755l0.702-1.405c-3.862-0.702-5.266-6.67-10.883-8.776-1.755-0.351-5.617-6.319-7.723-7.724-1.053-0.702-2.809-0.702-0.352-1.053-0.351-0.351-0.351-1.053 0-1.404-2.457-0.702-2.809-2.809-5.968-3.862-0.351-1.053 0.702-1.755 0-2.457-0.702-0.351-1.755 0.351-2.457 0-0.351 6.319 6.67 7.021 8.777 12.287-0.702-0.702-1.755-2.809-2.458-1.404-0.351 1.053 2.809 4.915 2.809 2.808-1.053 0.702-1.404-1.053-0.703-1.404 1.053 1.755 3.16 1.404 3.16 2.809-1.053 1.053-2.457-1.053-2.106 0.702 3.16 1.755 2.809 3.511 4.563 5.968-1.404-1.755-1.755 1.404-3.159 0-0.351-5.266-6.319-4.213-6.319-9.479-0.702-1.755-1.404-0.351-2.458-1.053 1.404-1.404-4.213-6.319-4.213-4.564-1.755-2.106-0.702-2.809-1.053-4.213-1.404-0.351-0.351 1.404-1.404 0.351 1.404-2.457-1.755-5.617-3.862-8.074l1.405-0.702c-2.457-1.404-2.809-4.213-4.564-7.373-2.106 3.16 4.213 10.181 3.159 11.585 0 0.351 2.457 3.16 3.16 4.564 2.809 4.915 4.915 10.883 8.777 13.692-0.702-0.351-0.351-2.457 0.702-1.404 0 1.053-0.702 2.106-0.702 3.159 2.106 2.106 3.862 3.862 5.968 5.968-4.564-2.809-9.128-5.617-12.288-9.83 1.755-0.351 3.511 2.809 4.915 2.458-3.511-2.809-2.457-3.862-3.861-7.372-1.404-1.053 0.351 1.404-1.054 1.755-4.564-4.213-8.075-6.67-10.181-10.532 0.351-0.351 0.702-0.702 0.703-1.404-0.351-0.351-0.351-0.351-0.703-0.702 2.106 2.106 2.809 3.862 5.266 4.212-1.053-1.053 0-1.404-1.404-2.457-0.702-1.404-1.755 0.702-2.457-0.351 0.702-1.053 0-2.457 0-3.511-0.702 0-1.404 0-1.756-1.053-0.702-0.351-1.053 0-1.404 0.702-0.351-0.351-0.351-1.053-0.702-1.404v-0.351c-0.351-0.351-0.702-1.053-1.053-1.405-2.809-7.372-4.564-17.202-8.426-23.521 1.053-4.213-0.702-12.638-1.755-14.745 1.053-1.755 0.351-9.83-0.351-11.234-1.755 0.702 0.351 4.564-1.404 5.617-1.755-7.723 1.053-16.5 0.351-23.521 0.702 0 1.404 0 1.404-0.351-1.053-1.053 0.702-3.16 0.351-5.617 1.404-3.16-3.16 4.564-3.16 7.723-0.351 0.702-1.755 0-1.404 1.756 0 2.457 0.702 7.372-0.702 10.883-0.702 0-0.702-0.702-1.404-0.351-0.351 1.755-0.702 3.862-1.053 5.617-0.351-0.702-0.702-1.755-0.703-2.107-1.755-8.777 0-18.958-0.702-26.33 1.404 0 1.404-2.106 2.458-2.808-0.351 2.809-1.053 6.319 0.702 7.021 1.404-13.692 4.213-28.787 10.532-43.532 4.564-10.883 11.234-21.766 19.308-30.543 0.702 1.053-0.351 3.511 0 4.564 7.021-7.372 11.585-16.149 19.309-21.064 0.351 1.755-3.16 3.16-3.16 4.564 3.16-3.16 4.213-2.106 7.724-3.159 1.053-1.404-1.404 0-1.756-1.405 2.106-1.404 3.511-3.16 4.915-4.212 0 0.351-0.351 0.351-0.351 0.702 3.862-1.053 4.213-3.16 7.022-3.862-0.351-0.351-1.053-0.702-2.107-0.351 0.702-0.351 1.755-1.053 2.809-1.404-0.351 0-0.351 0.351-0.702 0.351 2.106-1.053 0.351 0.351 0.351 1.053 0.351 0 0.702-0.351 0.702-0.351-2.106 1.404-3.511 2.106-4.213 4.564 1.053-0.702 1.404 0 2.809-1.054 1.404-0.702-0.351-1.755 0.702-2.457 1.053 0.702 2.457 0.351 3.51 0.351 0-0.702 0.351-1.404 1.054-1.755 0.351-0.702 0-1.053-0.352-1.053 0.351-0.351 0.702-0.351 1.405-0.703 0 0 0.351 0 0.351 0.351 5.968-2.809 12.638-5.266 18.957-7.372 3.862-0.351 8.777-0.351 10.883-2.808-0.702 0-1.404 0.351-1.755 0 0.351 0 1.053-0.351 1.404-0.351 0.702 0.702 1.755 0 0.702 1.404 0.351 0 0.351 0 0.703-0.351 0 0.351 0 0.351 0.351 0.702 0.351 0 0.702-0.351 1.053-1.053 0.351 0 0.702 0 1.053-0.351l-0.351 0.351c2.809-0.702 5.266-0.351 9.128-1.054 0-0.351 0-0.702 0-1.053 0.702 0 1.053-0.351 1.755-0.351v0.351c1.404-0.702 2.809 0.702 2.808 0 0.351 0 0.351 0 0.703 0 0 0.702-0.351 1.053-0.351 1.405 1.755 0 2.809 0 3.51-1.054-0.351-0.351-0.702-0.351-1.053-0.351 0.702 0 1.404-0.351 2.106-0.702 1.053 0.351 1.404 0.702 1.405 2.107 1.755-3.16 7.372 0.702 9.829 0 1.053 0 0.702-1.404 1.405-2.107 0.351 0 0.702 0 1.053 0 1.755 1.404 4.213 2.809 7.372 3.16-2.809-0.702 0.351-1.053 0.702-1.405-0.702 0-0.702-0.351-0.702-0.702 1.053 0 2.106 0.351 3.16 0.351 0 0.702 0.351 1.053 1.053 1.054 0.702 0 0.702-0.351 0.702-1.054 1.053 0 1.755 0 2.809 0.351-0.351 1.404 1.755 1.755 2.457 2.809-2.809-0.702-5.968-1.755-7.021 0 11.234 2.457 23.521 5.968 35.457 11.936 0 0 0 0 0 0.351h0.352c2.106 1.053 4.213 2.106 6.319 3.16 1.404 0.702 2.457 1.404 3.861 2.457 0 0.351 0 0.702 0.703 0.702h0.351c1.404 1.053 2.809 1.755 4.212 2.809 1.404 2.106 2.809 4.915 5.266 4.213 5.266 8.075 10.883 11.234 15.447 19.659 0.351-1.404 1.404 3.16 3.16 3.511-2.809-0.351 1.755 1.755-1.053 1.404 2.457 2.457 3.16 3.511 3.51 6.319-0.702-1.404-1.053-1.755-1.404-0.351-0.351 2.106 2.457-0.351 3.511 1.756-2.106 0-1.404 1.404-1.054 3.159 1.053-1.053 0.702-2.106 1.756-1.755 1.404 1.404-0.702 1.755-0.351 2.809 1.053-1.404 1.404-0.702 2.808 0-1.755 0.351 1.053 2.809-1.053 1.755 1.404 1.755 1.755 2.809 1.053 4.564-1.404-2.106-0.351-3.511-2.457-3.16 4.213 3.511 2.106 11.585 7.021 12.287-3.16 0.702 0 2.106-1.755 2.458 2.106 0.702 1.053 3.511 3.51 4.213-0.351 1.755-1.053 2.809-1.404 4.563 1.053 1.404 1.404 4.213 3.16 4.564-1.053 1.053-0.351 3.862-1.404 4.915 1.404-0.702 2.106-0.702 3.159 0.702-1.755 1.404-0.351 2.809-1.404 3.16 3.16 8.075-0.702 24.575 1.053 30.894-2.106-1.053-1.404 2.457-2.808 2.457 2.457 1.053 0.351 2.809 1.404 4.564-4.915 2.809 0 10.532-6.67 12.287 0.702 4.915-2.106 7.021-4.213 12.288-0.351-0.351-0.351-0.702-0.702-1.054-0.351 2.457-1.755 2.809-1.054 4.915l-1.404-0.702c0 3.862-5.968 5.968-7.372 11.936-0.351 1.755-5.617 6.319-7.022 8.777-0.702 1.053-0.351 2.809-1.053 0.351-0.351 0.351-1.053 0.351-1.404 0.351-0.351 2.457-2.457 3.16-3.16 6.319-0.702 0.351-1.755-0.702-2.457 0.351 0 0.702 0.702 1.755 0.351 2.458 6.319-0.351 6.319-7.723 11.234-10.181-0.351 1.053-2.457 2.106-1.053 2.808 1.053 0 4.213-3.511 2.457-3.159 1.053 0.702-1.053 1.404-1.404 1.053 1.755-1.404 1.053-3.16 2.458-3.511 1.053 0.702-1.053 2.457 1.053 2.107 1.404-3.16 3.16-3.511 5.266-5.266-1.404 1.404 1.755 1.755 0.351 3.159-5.266 1.053-3.511 7.021-8.777 7.724-1.404 1.053-0.351 1.404-0.702 2.457-1.755-1.053-5.617 4.915-4.213 4.564-1.755 1.755-2.809 1.053-4.212 1.404-0.351 1.404 1.404 0.351 0.702 1.405-2.457-1.053-5.617 2.457-7.724 4.915l-1.053-1.054c-1.053 2.809-3.862 3.16-7.021 5.266 3.511 1.755 9.479-5.617 11.234-4.564 0.351 0 3.16-2.809 4.213-3.861 4.564-3.511 10.181-6.319 12.287-10.181-0.351 0.702-2.457 0.702-1.404-0.351 1.053-0.351 2.106 0.351 3.159 0.351 5.617-7.723 12.638-14.043 17.905-23.17 0.351-0.351 0.702-1.053 1.053-1.756-0.702 2.106-1.755 3.862-2.458 5.968-5.617 3.862-7.723 15.096-14.393 16.851 0.351 3.862-3.16 4.915-4.915 9.479-1.053 1.404-1.755-1.053-2.809 0.702 1.053 4.915-8.777 4.564-8.425 9.128-0.702 0.351-1.755 0.702-2.458 1.404h-0.351c-0.351 0.351-0.351 0.351-0.702 0.702-1.755 1.053-3.16 2.106-4.564 3.16-4.915 2.809-11.585 4.915-16.851 7.723v-0.351c-1.404 0.702-3.16 0.351-2.809 1.756-1.053 0.702-2.106 1.404-3.159 2.106-0.351 0-0.351 0-0.702 0 0 0-0.351-0.351-0.702-0.351-0.702 0-0.702 0-1.054 0.351-4.564 0.351-10.532 2.457-12.287 3.862-1.755-1.053-9.83 0.702-11.234 1.404 0.702 1.053 2.809 0 4.564 0-1.053 0.351-2.106 0.702-2.458 1.404-0.351 0-0.351 0-0.702 0-0.351-1.053-1.404 0-1.755-0.351h0.351c-0.351-1.404-1.404-2.106-3.16-1.755 0 0.702 0 1.053-0.351 1.755 0.702 0 2.809-1.053 2.809 0-0.351 0-0.351 0.351 0 0.351-0.702 0.702-1.755 0.702-2.458 1.054-1.404 0-3.16 0-4.563 0-0.351-0.351-0.702-0.351-1.405-0.703-0.351 0.351-1.053 0.351-1.404 0.703-2.106 0-4.564 0.351-6.319 0.702 0-0.702 0-1.404-0.702-1.405-1.053 1.404-3.16-0.351-5.617 0.352-2.457-0.702 1.404 1.053 4.915 1.755-0.351 0.351-0.702 0.702-1.756 1.053M116.068 308.271c-4.915-4.564-15.096-6.67-16.851-10.181-2.809-0.351-7.021-5.617-10.532-6.319 1.755 0 0.351-1.053 0-1.755-0.702 0.702-1.404 1.053-2.106 1.053 0-2.809-2.809-4.564-5.266-6.319 1.755 1.053 3.16 1.755 5.266 2.106 0-0.702 0-1.404 0.702-1.404 2.457 2.457 5.266 4.915 8.425 7.372 4.213 3.862 25.979 13.692 29.841 15.447 0 0-0.702 1.404-0.351 1.404 1.755 1.053 3.16-1.053 3.511 1.404-5.617 0.702-7.723-3.16-12.639-2.808M277.909 226.824v0.351 0c-0.351 0 0-0.351 0-0.351M136.079 64.281c-0.351 0.351-0.702 0.351-0.702 0.351 0-0.351 0.351-0.351 0.702-0.351M129.409 66.036c0 0.351 0 0.351 0 0 0 0.351 0 0.351 0 0 0 0.351 0 0 0 0M106.238 73.408v0c0.351-0.351 0.351-0.351 0.703-0.351-0.351 0-0.702 0.351-0.703 0.351M162.409 61.823c-0.702 0-1.053 0-1.404-0.351 0.351 0 0.702 0 1.053 0h0.351c0 0 0 0 0 0.351M168.728 62.525c-0.351-0.351-1.404-0.702-2.457-0.702 0-0.351 0.351-0.702 0.351-0.702 0.351 0 0.702 0 1.053 0 0 0 0.351 0 0.351 0.351 0 0 0 0 0-0.351 0.351 0 0.351 0 0.702 0 0.351 0.702 0.702 1.053 0 1.404M180.313 63.579c-1.755 0.351-2.809-0.351-4.564-1.405 1.053 0 2.457 0.351 3.511 0.702 0.351 0 0.702 0.351 1.053 0.703M305.292 113.43c-0.702 0.351-1.053 0.351-1.755-1.053-5.617-11.936-15.798-29.138-30.543-43.532-14.394-14.745-33.702-26.681-51.255-33.001 1.053 0.351 2.457 1.053 1.755 1.756-15.447-5.968-30.192-9.479-44.234-10.883-37.915-5.968-77.585 2.106-108.128 21.766 0.351 0.702 0.351 1.053-0.702 1.755-11.234 7.021-27.032 19.309-39.671 35.458-12.638 16.149-22.468 36.511-26.681 54.766 0.351-1.053 0.702-2.809 1.405-2.107-9.128 36.16-6.67 67.053 5.968 93.735 0.702-0.702-1.755-4.213 0.351-3.862 1.404 3.862 3.16 8.075 5.266 11.936 2.457 5.617 5.266 12.989 9.128 14.745-9.83-19.309-16.5-41.426-17.203-61.085 1.404 2.809 1.053 8.777 3.16 11.234 0.702-13.34-2.457-31.245 2.106-43.883-1.053 6.67-1.755 15.798-1.053 24.925 0 6.67 3.16 25.277 5.266 27.032-0.351-0.351-0.351-2.106 0-2.106 1.053 2.106-1.404 3.16 0.351 3.511 0-0.702 0.351-0.702 0.702-0.703 3.511 7.723 8.075 19.66 11.585 25.628 4.213 7.723 9.83 14.745 16.149 21.064 0 0.351 0.351 0.351 0.352 0.702 0.702 1.755 3.16 3.862 3.861 5.266 0.351 0.702-0.351 1.755 0 2.458 5.266 9.83 12.989 19.66 22.468 27.383 5.968 7.021 15.447 14.394 27.032 20.713 11.234 5.968 24.223 10.883 36.16 13.691 8.426 2.106 18.606 2.457 24.926 3.862 8.426 1.755 23.17-0.702 30.542-2.107 44.234-6.67 88.117-36.862 110.235-80.393 22.819-43.883 22.117-97.596 2.457-138.671" fill="url(#8c017774-043a-4187-8f1e-848d5cbcf94c)" fill-rule="nonzero" stroke="none" stroke-width="1" stroke-linecap="butt" stroke-linejoin="miter" stroke-miterlimit="10" stroke-dasharray="" stroke-dashoffset="0" font-family="none" font-weight="none" font-size="none" text-anchor="none" style="mix-blend-mode: normal" data-fill-palette-color="tertiary"></path></g><g transform="matrix(1,0,0,1,80,162.06969376979936)"><svg viewBox="0 0 160 35.86061246040127" height="35.86061246040127" width="160"><g><svg viewBox="0 0 160 35.86061246040127" height="35.86061246040127" width="160"><g><svg viewBox="0 0 160 35.86061246040127" height="35.86061246040127" width="160"><g><svg viewBox="0 0 160 35.86061246040127" height="35.86061246040127" width="160"><g id="textblocktransform"><svg viewBox="0 0 160 35.86061246040127" height="35.86061246040127" width="160" id="textblock"><g><svg viewBox="0 0 160 35.86061246040127" height="35.86061246040127" width="160"><g transform="matrix(1,0,0,1,0,0)"><svg width="160" viewBox="2.25 -36.5 189.39 42.45" height="35.86061246040127" data-palette-color="url(#7effc203-e3cc-4f6c-9132-d107dce0ee5b)"></svg></g></svg></g></svg></g></svg></g><g></g></svg></g></svg></g></svg></g></svg></g><defs></defs><mask id="e594aaff-af35-4328-b0ac-7d9aef55027a"><g id="SvgjsG1009"><svg viewBox="0 0 320 360" height="360" width="320"><g><svg></svg></g><g><svg viewBox="0 0 320 360" height="360" width="320"><g></g><g transform="matrix(1,0,0,1,80,162.06969376979936)"><svg viewBox="0 0 160 35.86061246040127" height="35.86061246040127" width="160"><g><svg viewBox="0 0 160 35.86061246040127" height="35.86061246040127" width="160"><g><svg viewBox="0 0 160 35.86061246040127" height="35.86061246040127" width="160"><g><svg viewBox="0 0 160 35.86061246040127" height="35.86061246040127" width="160"><g id="SvgjsG1008"><svg viewBox="0 0 160 35.86061246040127" height="35.86061246040127" width="160" id="SvgjsSvg1007"><g><svg viewBox="0 0 160 35.86061246040127" height="35.86061246040127" width="160"><g transform="matrix(1,0,0,1,0,0)"><svg width="160" viewBox="2.25 -36.5 189.39 42.45" height="35.86061246040127" data-palette-color="url(#7effc203-e3cc-4f6c-9132-d107dce0ee5b)"><path d="M26-31L26-31 15.1-31 15.1-16.55 26-16.55Q29.1-16.55 30.15-18.05 31.2-19.55 31.2-22.3L31.2-22.3 31.2-25.8Q31.2-28.1 29.93-29.55 28.65-31 26-31ZM20.5-20.6L20.5-27 24.25-27Q25.55-27 26-26.33 26.45-25.65 26.45-24.65L26.45-24.65 26.45-22.95Q26.45-21.95 26-21.28 25.55-20.6 24.25-20.6L24.25-20.6 20.5-20.6ZM15.1-16.1L15.1-4.5 14.6-4.5 14.6-31.5 26-31.5Q28.9-31.5 30.3-29.88 31.7-28.25 31.7-25.8L31.7-25.8 31.7-22.35Q31.7-20.05 31.1-18.57 30.5-17.1 28.7-16.55L28.7-16.55 29.25-16.55Q32.3-16.55 33.8-15.18 35.3-13.8 35.3-11.2L35.3-11.2 35.3-4.5 34.8-4.5 34.8-11.2Q34.8-13.65 33.45-14.88 32.1-16.1 29.25-16.1L29.25-16.1 15.1-16.1ZM11 0L18.7 0Q19.65 0 20.08-0.43 20.5-0.85 20.5-1.8L20.5-1.8 20.5-11.6 27.5-11.6Q28.55-11.6 28.98-11.08 29.4-10.55 29.4-9.45L29.4-9.45 29.4-1.8Q29.4-0.85 29.83-0.43 30.25 0 31.2 0L31.2 0 38.95 0Q39.9 0 40.33-0.43 40.75-0.85 40.75-1.8L40.75-1.8 40.75-12.4Q40.75-15.55 39.08-17.45 37.4-19.35 34.7-19.65L34.7-19.65Q36.25-20.3 36.88-21.78 37.5-23.25 37.5-25.35L37.5-25.35 37.5-27.65Q37.5-31.35 35.38-33.68 33.25-36 27.65-36L27.65-36 11-36Q10.05-36 9.63-35.58 9.2-35.15 9.2-34.2L9.2-34.2 9.2-1.8Q9.2-0.85 9.63-0.43 10.05 0 11 0L11 0ZM20.3 0.05L20.3 0.05 13.8 5.45Q13.6 5.65 13.18 5.8 12.75 5.95 12.25 5.95L12.25 5.95 4.55 5.95Q3.35 5.95 2.8 5.4 2.25 4.85 2.25 3.65L2.25 3.65 2.25-28.75Q2.25-29.4 2.43-29.85 2.6-30.3 2.95-30.6L2.95-30.6 9.4-36.05Q9.65-36.25 10.08-36.38 10.5-36.5 11-36.5L11-36.5 27.65-36.5Q33.6-36.5 35.8-34.02 38-31.55 38-27.65L38-27.65 38-25.35Q38-23.5 37.55-22.13 37.1-20.75 36.1-19.9L36.1-19.9 36.05-19.9Q38.4-19.25 39.83-17.3 41.25-15.35 41.25-12.4L41.25-12.4 41.25-1.8Q41.25-1.15 41.08-0.7 40.9-0.25 40.55 0.05L40.55 0.05 34.05 5.45Q33.85 5.65 33.43 5.8 33 5.95 32.5 5.95L32.5 5.95 24.75 5.95Q23.55 5.95 23 5.4 22.45 4.85 22.45 3.65L22.45 3.65 22.45-4Q22.45-4.8 22.15-5.23 21.85-5.65 21.05-5.65L21.05-5.65 21-5.65 21-1.8Q21-1.15 20.83-0.7 20.65-0.25 20.3 0.05ZM67.2 5.95L67.2 5.95 45.9 5.95Q44.7 5.95 44.15 5.4 43.6 4.85 43.6 3.65L43.6 3.65 43.6-2.3Q43.6-2.95 43.77-3.4 43.95-3.85 44.3-4.15L44.3-4.15 50.35-9.25 50.35-20.4 45.9-20.4Q44.7-20.4 44.15-20.95 43.6-21.5 43.6-22.7L43.6-22.7 43.6-28.75Q43.6-29.4 43.77-29.85 43.95-30.3 44.3-30.6L44.3-30.6 50.75-36.05Q51-36.25 51.42-36.38 51.85-36.5 52.35-36.5L52.35-36.5 73.65-36.5Q74.85-36.5 75.4-35.95 75.95-35.4 75.95-34.2L75.95-34.2 75.95-28.15Q75.95-27.5 75.77-27.05 75.6-26.6 75.25-26.3L75.25-26.3 69.3-21.3 69.3-10.05 73.65-10.05Q74.85-10.05 75.4-9.5 75.95-8.95 75.95-7.75L75.95-7.75 75.95-1.8Q75.95-1.15 75.77-0.7 75.6-0.25 75.25 0.05L75.25 0.05 68.75 5.45Q68.55 5.65 68.12 5.8 67.7 5.95 67.2 5.95ZM52.35 0L52.35 0 73.65 0Q74.6 0 75.02-0.43 75.45-0.85 75.45-1.8L75.45-1.8 75.45-7.75Q75.45-8.7 75.02-9.13 74.6-9.55 73.65-9.55L73.65-9.55 68.8-9.55 68.8-26.35 73.65-26.35Q74.6-26.35 75.02-26.78 75.45-27.2 75.45-28.15L75.45-28.15 75.45-34.2Q75.45-35.15 75.02-35.58 74.6-36 73.65-36L73.65-36 52.35-36Q51.4-36 50.97-35.58 50.55-35.15 50.55-34.2L50.55-34.2 50.55-28.15Q50.55-27.2 50.97-26.78 51.4-26.35 52.35-26.35L52.35-26.35 57.3-26.35 57.3-9.55 52.35-9.55Q51.4-9.55 50.97-9.13 50.55-8.7 50.55-7.75L50.55-7.75 50.55-1.8Q50.55-0.85 50.97-0.43 51.4 0 52.35 0ZM70.95-5L70.95-4.5 55.05-4.5 55.05-5 62.8-5 62.8-31 55.05-31 55.05-31.5 70.95-31.5 70.95-31 63.3-31 63.3-5 70.95-5ZM96.85 5.95L81.05 5.95Q79.85 5.95 79.3 5.4 78.75 4.85 78.75 3.65L78.75 3.65 78.75-2.2Q78.75-2.85 78.92-3.3 79.1-3.75 79.45-4.05L79.45-4.05 84.45-8.25Q81.8-9.05 80.27-10.98 78.75-12.9 78.75-16.5L78.75-16.5 78.75-21.75Q78.75-24 79.5-25.75 80.25-27.5 81.65-28.7L81.65-28.7 88.15-34.15Q89.5-35.25 91.5-35.88 93.5-36.5 96.05-36.5L96.05-36.5 110.05-36.5Q111.25-36.5 111.8-35.95 112.35-35.4 112.35-34.2L112.35-34.2 112.35-28.25Q112.35-27.6 112.17-27.15 112-26.7 111.65-26.4L111.65-26.4 107.15-22.65Q110.3-21.95 112.22-20.03 114.15-18.1 114.15-14.05L114.15-14.05 114.15-8.8Q114.15-6.55 113.4-4.8 112.65-3.05 111.2-1.85L111.2-1.85 104.75 3.55Q103.35 4.7 101.35 5.33 99.35 5.95 96.85 5.95L96.85 5.95ZM87.5 0L103.3 0Q108.1 0 110.87-2.27 113.65-4.55 113.65-8.8L113.65-8.8 113.65-14.05Q113.65-18.25 111.5-20.05 109.35-21.85 105.85-22.35L105.85-22.35 98.4-23.35Q97.75-23.4 97.4-23.85 97.05-24.3 97.05-24.95L97.05-24.95Q97.05-25.6 97.4-26.03 97.75-26.45 98.4-26.45L98.4-26.45 110.05-26.45Q111-26.45 111.42-26.88 111.85-27.3 111.85-28.25L111.85-28.25 111.85-34.2Q111.85-35.15 111.42-35.58 111-36 110.05-36L110.05-36 96.05-36Q91.2-36 88.45-33.73 85.7-31.45 85.7-27.2L85.7-27.2 85.7-21.95Q85.7-17.75 87.82-15.95 89.95-14.15 93.45-13.65L93.45-13.65 100.95-12.6Q101.6-12.55 101.92-12.15 102.25-11.75 102.25-10.9L102.25-10.9Q102.25-10.3 101.92-9.88 101.6-9.45 100.95-9.45L100.95-9.45 87.5-9.45Q86.55-9.45 86.12-9.03 85.7-8.6 85.7-7.65L85.7-7.65 85.7-1.8Q85.7-0.85 86.12-0.43 86.55 0 87.5 0L87.5 0ZM96.25-31.5L107.35-31.5 107.35-31 96.25-31Q94.15-31 92.9-29.85 91.65-28.7 91.65-26.95L91.65-26.95 91.65-22.85Q91.65-21.1 92.35-20.4 93.05-19.7 94.2-19.5L94.2-19.5 104.75-17.35Q106.25-17.05 107.22-16.05 108.2-15.05 108.2-12.45L108.2-12.45 108.2-9.55Q108.2-7.35 106.7-5.93 105.2-4.5 102.65-4.5L102.65-4.5 90.2-4.5 90.2-5 102.65-5Q104.95-5 106.32-6.28 107.7-7.55 107.7-9.55L107.7-9.55 107.7-12.45Q107.7-14.8 106.87-15.68 106.05-16.55 104.65-16.85L104.65-16.85 94.1-19Q92.8-19.25 91.97-20.03 91.15-20.8 91.15-22.85L91.15-22.85 91.15-26.95Q91.15-28.95 92.55-30.23 93.95-31.5 96.25-31.5L96.25-31.5ZM129.99-4.5L129.49-4.5 129.49-31.5 129.99-31.5 129.99-18.25 149.19-18.25 149.19-31.5 149.69-31.5 149.69-4.5 149.19-4.5 149.19-17.75 129.99-17.75 129.99-4.5ZM125.89 0L133.64 0Q134.59 0 135.02-0.43 135.44-0.85 135.44-1.8L135.44-1.8 135.44-12.9 143.79-12.9 143.79-1.8Q143.79-0.85 144.22-0.43 144.64 0 145.59 0L145.59 0 153.34 0Q154.29 0 154.72-0.43 155.14-0.85 155.14-1.8L155.14-1.8 155.14-34.2Q155.14-35.15 154.72-35.58 154.29-36 153.34-36L153.34-36 145.59-36Q144.64-36 144.22-35.58 143.79-35.15 143.79-34.2L143.79-34.2 143.79-23.35 135.44-23.35 135.44-34.2Q135.44-35.15 135.02-35.58 134.59-36 133.64-36L133.64-36 125.89-36Q124.94-36 124.52-35.58 124.09-35.15 124.09-34.2L124.09-34.2 124.09-1.8Q124.09-0.85 124.52-0.43 124.94 0 125.89 0L125.89 0ZM135.24 0.05L135.24 0.05 128.74 5.45Q128.54 5.65 128.12 5.8 127.69 5.95 127.19 5.95L127.19 5.95 119.44 5.95Q118.24 5.95 117.69 5.4 117.14 4.85 117.14 3.65L117.14 3.65 117.14-28.75Q117.14-29.4 117.32-29.85 117.49-30.3 117.84-30.6L117.84-30.6 124.29-36.05Q124.54-36.25 124.97-36.38 125.39-36.5 125.89-36.5L125.89-36.5 133.64-36.5Q134.84-36.5 135.39-35.95 135.94-35.4 135.94-34.2L135.94-34.2 135.94-23.85 136.84-23.85 136.84-28.75Q136.84-29.4 137.02-29.85 137.19-30.3 137.54-30.6L137.54-30.6 143.99-36.05Q144.24-36.25 144.67-36.38 145.09-36.5 145.59-36.5L145.59-36.5 153.34-36.5Q154.54-36.5 155.09-35.95 155.64-35.4 155.64-34.2L155.64-34.2 155.64-1.8Q155.64-1.15 155.47-0.7 155.29-0.25 154.94 0.05L154.94 0.05 148.44 5.45Q148.24 5.65 147.82 5.8 147.39 5.95 146.89 5.95L146.89 5.95 139.14 5.95Q137.94 5.95 137.39 5.4 136.84 4.85 136.84 3.65L136.84 3.65 136.84-6.95 135.94-6.95 135.94-1.8Q135.94-1.15 135.77-0.7 135.59-0.25 135.24 0.05ZM182.89 5.95L182.89 5.95 161.59 5.95Q160.39 5.95 159.84 5.4 159.29 4.85 159.29 3.65L159.29 3.65 159.29-2.3Q159.29-2.95 159.47-3.4 159.64-3.85 159.99-4.15L159.99-4.15 166.04-9.25 166.04-20.4 161.59-20.4Q160.39-20.4 159.84-20.95 159.29-21.5 159.29-22.7L159.29-22.7 159.29-28.75Q159.29-29.4 159.47-29.85 159.64-30.3 159.99-30.6L159.99-30.6 166.44-36.05Q166.69-36.25 167.12-36.38 167.54-36.5 168.04-36.5L168.04-36.5 189.34-36.5Q190.54-36.5 191.09-35.95 191.64-35.4 191.64-34.2L191.64-34.2 191.64-28.15Q191.64-27.5 191.47-27.05 191.29-26.6 190.94-26.3L190.94-26.3 184.99-21.3 184.99-10.05 189.34-10.05Q190.54-10.05 191.09-9.5 191.64-8.95 191.64-7.75L191.64-7.75 191.64-1.8Q191.64-1.15 191.47-0.7 191.29-0.25 190.94 0.05L190.94 0.05 184.44 5.45Q184.24 5.65 183.82 5.8 183.39 5.95 182.89 5.95ZM168.04 0L168.04 0 189.34 0Q190.29 0 190.72-0.43 191.14-0.85 191.14-1.8L191.14-1.8 191.14-7.75Q191.14-8.7 190.72-9.13 190.29-9.55 189.34-9.55L189.34-9.55 184.49-9.55 184.49-26.35 189.34-26.35Q190.29-26.35 190.72-26.78 191.14-27.2 191.14-28.15L191.14-28.15 191.14-34.2Q191.14-35.15 190.72-35.58 190.29-36 189.34-36L189.34-36 168.04-36Q167.09-36 166.67-35.58 166.24-35.15 166.24-34.2L166.24-34.2 166.24-28.15Q166.24-27.2 166.67-26.78 167.09-26.35 168.04-26.35L168.04-26.35 172.99-26.35 172.99-9.55 168.04-9.55Q167.09-9.55 166.67-9.13 166.24-8.7 166.24-7.75L166.24-7.75 166.24-1.8Q166.24-0.85 166.67-0.43 167.09 0 168.04 0ZM186.64-5L186.64-4.5 170.74-4.5 170.74-5 178.49-5 178.49-31 170.74-31 170.74-31.5 186.64-31.5 186.64-31 178.99-31 178.99-5 186.64-5Z" opacity="1" transform="matrix(1,0,0,1,0,0)" fill="white" class="wordmark-text-0" id="SvgjsPath1006"></path></svg></g></svg></g></svg></g></svg></g><g></g></svg></g></svg></g></svg></g></svg></g><defs><mask></mask></defs></svg></g></mask><linearGradient x1="0" x2="1" y1="0.5" y2="0.5" id="7effc203-e3cc-4f6c-9132-d107dce0ee5b"><stop stop-color="#ffa62e" offset="0"></stop><stop stop-color="#f71b3d" offset="1"></stop></linearGradient><rect width="320" height="360" fill="url(#7effc203-e3cc-4f6c-9132-d107dce0ee5b)" mask="url(#e594aaff-af35-4328-b0ac-7d9aef55027a)" data-fill-palette-color="primary"></rect><mask id="c2d809f0-6b71-45f6-ada0-5fbe71f02acf"><g id="SvgjsG1024"><svg viewBox="0 0 320 360" height="360" width="320"><g><svg></svg></g><g><svg viewBox="0 0 320 360" height="360" width="320"><g><path d="M165.217 303.356c-1.404-1.755-2.809-0.702-2.808-1.755-8.426 2.106-24.223-3.511-30.894-2.809 1.404-2.106-2.106-1.755-2.106-3.159-1.404 2.106-2.809 0-4.915 0.702-2.106-5.266-10.532-1.404-11.585-8.075-4.915 0-6.67-2.809-11.586-5.617 0.351-0.351 0.702-0.351 1.054-0.702-2.457-0.351-2.457-1.755-4.564-1.755l0.702-1.405c-3.862-0.702-5.266-6.67-10.883-8.776-1.755-0.351-5.617-6.319-7.723-7.724-1.053-0.702-2.809-0.702-0.352-1.053-0.351-0.351-0.351-1.053 0-1.404-2.457-0.702-2.809-2.809-5.968-3.862-0.351-1.053 0.702-1.755 0-2.457-0.702-0.351-1.755 0.351-2.457 0-0.351 6.319 6.67 7.021 8.777 12.287-0.702-0.702-1.755-2.809-2.458-1.404-0.351 1.053 2.809 4.915 2.809 2.808-1.053 0.702-1.404-1.053-0.703-1.404 1.053 1.755 3.16 1.404 3.16 2.809-1.053 1.053-2.457-1.053-2.106 0.702 3.16 1.755 2.809 3.511 4.563 5.968-1.404-1.755-1.755 1.404-3.159 0-0.351-5.266-6.319-4.213-6.319-9.479-0.702-1.755-1.404-0.351-2.458-1.053 1.404-1.404-4.213-6.319-4.213-4.564-1.755-2.106-0.702-2.809-1.053-4.213-1.404-0.351-0.351 1.404-1.404 0.351 1.404-2.457-1.755-5.617-3.862-8.074l1.405-0.702c-2.457-1.404-2.809-4.213-4.564-7.373-2.106 3.16 4.213 10.181 3.159 11.585 0 0.351 2.457 3.16 3.16 4.564 2.809 4.915 4.915 10.883 8.777 13.692-0.702-0.351-0.351-2.457 0.702-1.404 0 1.053-0.702 2.106-0.702 3.159 2.106 2.106 3.862 3.862 5.968 5.968-4.564-2.809-9.128-5.617-12.288-9.83 1.755-0.351 3.511 2.809 4.915 2.458-3.511-2.809-2.457-3.862-3.861-7.372-1.404-1.053 0.351 1.404-1.054 1.755-4.564-4.213-8.075-6.67-10.181-10.532 0.351-0.351 0.702-0.702 0.703-1.404-0.351-0.351-0.351-0.351-0.703-0.702 2.106 2.106 2.809 3.862 5.266 4.212-1.053-1.053 0-1.404-1.404-2.457-0.702-1.404-1.755 0.702-2.457-0.351 0.702-1.053 0-2.457 0-3.511-0.702 0-1.404 0-1.756-1.053-0.702-0.351-1.053 0-1.404 0.702-0.351-0.351-0.351-1.053-0.702-1.404v-0.351c-0.351-0.351-0.702-1.053-1.053-1.405-2.809-7.372-4.564-17.202-8.426-23.521 1.053-4.213-0.702-12.638-1.755-14.745 1.053-1.755 0.351-9.83-0.351-11.234-1.755 0.702 0.351 4.564-1.404 5.617-1.755-7.723 1.053-16.5 0.351-23.521 0.702 0 1.404 0 1.404-0.351-1.053-1.053 0.702-3.16 0.351-5.617 1.404-3.16-3.16 4.564-3.16 7.723-0.351 0.702-1.755 0-1.404 1.756 0 2.457 0.702 7.372-0.702 10.883-0.702 0-0.702-0.702-1.404-0.351-0.351 1.755-0.702 3.862-1.053 5.617-0.351-0.702-0.702-1.755-0.703-2.107-1.755-8.777 0-18.958-0.702-26.33 1.404 0 1.404-2.106 2.458-2.808-0.351 2.809-1.053 6.319 0.702 7.021 1.404-13.692 4.213-28.787 10.532-43.532 4.564-10.883 11.234-21.766 19.308-30.543 0.702 1.053-0.351 3.511 0 4.564 7.021-7.372 11.585-16.149 19.309-21.064 0.351 1.755-3.16 3.16-3.16 4.564 3.16-3.16 4.213-2.106 7.724-3.159 1.053-1.404-1.404 0-1.756-1.405 2.106-1.404 3.511-3.16 4.915-4.212 0 0.351-0.351 0.351-0.351 0.702 3.862-1.053 4.213-3.16 7.022-3.862-0.351-0.351-1.053-0.702-2.107-0.351 0.702-0.351 1.755-1.053 2.809-1.404-0.351 0-0.351 0.351-0.702 0.351 2.106-1.053 0.351 0.351 0.351 1.053 0.351 0 0.702-0.351 0.702-0.351-2.106 1.404-3.511 2.106-4.213 4.564 1.053-0.702 1.404 0 2.809-1.054 1.404-0.702-0.351-1.755 0.702-2.457 1.053 0.702 2.457 0.351 3.51 0.351 0-0.702 0.351-1.404 1.054-1.755 0.351-0.702 0-1.053-0.352-1.053 0.351-0.351 0.702-0.351 1.405-0.703 0 0 0.351 0 0.351 0.351 5.968-2.809 12.638-5.266 18.957-7.372 3.862-0.351 8.777-0.351 10.883-2.808-0.702 0-1.404 0.351-1.755 0 0.351 0 1.053-0.351 1.404-0.351 0.702 0.702 1.755 0 0.702 1.404 0.351 0 0.351 0 0.703-0.351 0 0.351 0 0.351 0.351 0.702 0.351 0 0.702-0.351 1.053-1.053 0.351 0 0.702 0 1.053-0.351l-0.351 0.351c2.809-0.702 5.266-0.351 9.128-1.054 0-0.351 0-0.702 0-1.053 0.702 0 1.053-0.351 1.755-0.351v0.351c1.404-0.702 2.809 0.702 2.808 0 0.351 0 0.351 0 0.703 0 0 0.702-0.351 1.053-0.351 1.405 1.755 0 2.809 0 3.51-1.054-0.351-0.351-0.702-0.351-1.053-0.351 0.702 0 1.404-0.351 2.106-0.702 1.053 0.351 1.404 0.702 1.405 2.107 1.755-3.16 7.372 0.702 9.829 0 1.053 0 0.702-1.404 1.405-2.107 0.351 0 0.702 0 1.053 0 1.755 1.404 4.213 2.809 7.372 3.16-2.809-0.702 0.351-1.053 0.702-1.405-0.702 0-0.702-0.351-0.702-0.702 1.053 0 2.106 0.351 3.16 0.351 0 0.702 0.351 1.053 1.053 1.054 0.702 0 0.702-0.351 0.702-1.054 1.053 0 1.755 0 2.809 0.351-0.351 1.404 1.755 1.755 2.457 2.809-2.809-0.702-5.968-1.755-7.021 0 11.234 2.457 23.521 5.968 35.457 11.936 0 0 0 0 0 0.351h0.352c2.106 1.053 4.213 2.106 6.319 3.16 1.404 0.702 2.457 1.404 3.861 2.457 0 0.351 0 0.702 0.703 0.702h0.351c1.404 1.053 2.809 1.755 4.212 2.809 1.404 2.106 2.809 4.915 5.266 4.213 5.266 8.075 10.883 11.234 15.447 19.659 0.351-1.404 1.404 3.16 3.16 3.511-2.809-0.351 1.755 1.755-1.053 1.404 2.457 2.457 3.16 3.511 3.51 6.319-0.702-1.404-1.053-1.755-1.404-0.351-0.351 2.106 2.457-0.351 3.511 1.756-2.106 0-1.404 1.404-1.054 3.159 1.053-1.053 0.702-2.106 1.756-1.755 1.404 1.404-0.702 1.755-0.351 2.809 1.053-1.404 1.404-0.702 2.808 0-1.755 0.351 1.053 2.809-1.053 1.755 1.404 1.755 1.755 2.809 1.053 4.564-1.404-2.106-0.351-3.511-2.457-3.16 4.213 3.511 2.106 11.585 7.021 12.287-3.16 0.702 0 2.106-1.755 2.458 2.106 0.702 1.053 3.511 3.51 4.213-0.351 1.755-1.053 2.809-1.404 4.563 1.053 1.404 1.404 4.213 3.16 4.564-1.053 1.053-0.351 3.862-1.404 4.915 1.404-0.702 2.106-0.702 3.159 0.702-1.755 1.404-0.351 2.809-1.404 3.16 3.16 8.075-0.702 24.575 1.053 30.894-2.106-1.053-1.404 2.457-2.808 2.457 2.457 1.053 0.351 2.809 1.404 4.564-4.915 2.809 0 10.532-6.67 12.287 0.702 4.915-2.106 7.021-4.213 12.288-0.351-0.351-0.351-0.702-0.702-1.054-0.351 2.457-1.755 2.809-1.054 4.915l-1.404-0.702c0 3.862-5.968 5.968-7.372 11.936-0.351 1.755-5.617 6.319-7.022 8.777-0.702 1.053-0.351 2.809-1.053 0.351-0.351 0.351-1.053 0.351-1.404 0.351-0.351 2.457-2.457 3.16-3.16 6.319-0.702 0.351-1.755-0.702-2.457 0.351 0 0.702 0.702 1.755 0.351 2.458 6.319-0.351 6.319-7.723 11.234-10.181-0.351 1.053-2.457 2.106-1.053 2.808 1.053 0 4.213-3.511 2.457-3.159 1.053 0.702-1.053 1.404-1.404 1.053 1.755-1.404 1.053-3.16 2.458-3.511 1.053 0.702-1.053 2.457 1.053 2.107 1.404-3.16 3.16-3.511 5.266-5.266-1.404 1.404 1.755 1.755 0.351 3.159-5.266 1.053-3.511 7.021-8.777 7.724-1.404 1.053-0.351 1.404-0.702 2.457-1.755-1.053-5.617 4.915-4.213 4.564-1.755 1.755-2.809 1.053-4.212 1.404-0.351 1.404 1.404 0.351 0.702 1.405-2.457-1.053-5.617 2.457-7.724 4.915l-1.053-1.054c-1.053 2.809-3.862 3.16-7.021 5.266 3.511 1.755 9.479-5.617 11.234-4.564 0.351 0 3.16-2.809 4.213-3.861 4.564-3.511 10.181-6.319 12.287-10.181-0.351 0.702-2.457 0.702-1.404-0.351 1.053-0.351 2.106 0.351 3.159 0.351 5.617-7.723 12.638-14.043 17.905-23.17 0.351-0.351 0.702-1.053 1.053-1.756-0.702 2.106-1.755 3.862-2.458 5.968-5.617 3.862-7.723 15.096-14.393 16.851 0.351 3.862-3.16 4.915-4.915 9.479-1.053 1.404-1.755-1.053-2.809 0.702 1.053 4.915-8.777 4.564-8.425 9.128-0.702 0.351-1.755 0.702-2.458 1.404h-0.351c-0.351 0.351-0.351 0.351-0.702 0.702-1.755 1.053-3.16 2.106-4.564 3.16-4.915 2.809-11.585 4.915-16.851 7.723v-0.351c-1.404 0.702-3.16 0.351-2.809 1.756-1.053 0.702-2.106 1.404-3.159 2.106-0.351 0-0.351 0-0.702 0 0 0-0.351-0.351-0.702-0.351-0.702 0-0.702 0-1.054 0.351-4.564 0.351-10.532 2.457-12.287 3.862-1.755-1.053-9.83 0.702-11.234 1.404 0.702 1.053 2.809 0 4.564 0-1.053 0.351-2.106 0.702-2.458 1.404-0.351 0-0.351 0-0.702 0-0.351-1.053-1.404 0-1.755-0.351h0.351c-0.351-1.404-1.404-2.106-3.16-1.755 0 0.702 0 1.053-0.351 1.755 0.702 0 2.809-1.053 2.809 0-0.351 0-0.351 0.351 0 0.351-0.702 0.702-1.755 0.702-2.458 1.054-1.404 0-3.16 0-4.563 0-0.351-0.351-0.702-0.351-1.405-0.703-0.351 0.351-1.053 0.351-1.404 0.703-2.106 0-4.564 0.351-6.319 0.702 0-0.702 0-1.404-0.702-1.405-1.053 1.404-3.16-0.351-5.617 0.352-2.457-0.702 1.404 1.053 4.915 1.755-0.351 0.351-0.702 0.702-1.756 1.053M116.068 308.271c-4.915-4.564-15.096-6.67-16.851-10.181-2.809-0.351-7.021-5.617-10.532-6.319 1.755 0 0.351-1.053 0-1.755-0.702 0.702-1.404 1.053-2.106 1.053 0-2.809-2.809-4.564-5.266-6.319 1.755 1.053 3.16 1.755 5.266 2.106 0-0.702 0-1.404 0.702-1.404 2.457 2.457 5.266 4.915 8.425 7.372 4.213 3.862 25.979 13.692 29.841 15.447 0 0-0.702 1.404-0.351 1.404 1.755 1.053 3.16-1.053 3.511 1.404-5.617 0.702-7.723-3.16-12.639-2.808M277.909 226.824v0.351 0c-0.351 0 0-0.351 0-0.351M136.079 64.281c-0.351 0.351-0.702 0.351-0.702 0.351 0-0.351 0.351-0.351 0.702-0.351M129.409 66.036c0 0.351 0 0.351 0 0 0 0.351 0 0.351 0 0 0 0.351 0 0 0 0M106.238 73.408v0c0.351-0.351 0.351-0.351 0.703-0.351-0.351 0-0.702 0.351-0.703 0.351M162.409 61.823c-0.702 0-1.053 0-1.404-0.351 0.351 0 0.702 0 1.053 0h0.351c0 0 0 0 0 0.351M168.728 62.525c-0.351-0.351-1.404-0.702-2.457-0.702 0-0.351 0.351-0.702 0.351-0.702 0.351 0 0.702 0 1.053 0 0 0 0.351 0 0.351 0.351 0 0 0 0 0-0.351 0.351 0 0.351 0 0.702 0 0.351 0.702 0.702 1.053 0 1.404M180.313 63.579c-1.755 0.351-2.809-0.351-4.564-1.405 1.053 0 2.457 0.351 3.511 0.702 0.351 0 0.702 0.351 1.053 0.703M305.292 113.43c-0.702 0.351-1.053 0.351-1.755-1.053-5.617-11.936-15.798-29.138-30.543-43.532-14.394-14.745-33.702-26.681-51.255-33.001 1.053 0.351 2.457 1.053 1.755 1.756-15.447-5.968-30.192-9.479-44.234-10.883-37.915-5.968-77.585 2.106-108.128 21.766 0.351 0.702 0.351 1.053-0.702 1.755-11.234 7.021-27.032 19.309-39.671 35.458-12.638 16.149-22.468 36.511-26.681 54.766 0.351-1.053 0.702-2.809 1.405-2.107-9.128 36.16-6.67 67.053 5.968 93.735 0.702-0.702-1.755-4.213 0.351-3.862 1.404 3.862 3.16 8.075 5.266 11.936 2.457 5.617 5.266 12.989 9.128 14.745-9.83-19.309-16.5-41.426-17.203-61.085 1.404 2.809 1.053 8.777 3.16 11.234 0.702-13.34-2.457-31.245 2.106-43.883-1.053 6.67-1.755 15.798-1.053 24.925 0 6.67 3.16 25.277 5.266 27.032-0.351-0.351-0.351-2.106 0-2.106 1.053 2.106-1.404 3.16 0.351 3.511 0-0.702 0.351-0.702 0.702-0.703 3.511 7.723 8.075 19.66 11.585 25.628 4.213 7.723 9.83 14.745 16.149 21.064 0 0.351 0.351 0.351 0.352 0.702 0.702 1.755 3.16 3.862 3.861 5.266 0.351 0.702-0.351 1.755 0 2.458 5.266 9.83 12.989 19.66 22.468 27.383 5.968 7.021 15.447 14.394 27.032 20.713 11.234 5.968 24.223 10.883 36.16 13.691 8.426 2.106 18.606 2.457 24.926 3.862 8.426 1.755 23.17-0.702 30.542-2.107 44.234-6.67 88.117-36.862 110.235-80.393 22.819-43.883 22.117-97.596 2.457-138.671" fill="white" fill-rule="nonzero" stroke="none" stroke-width="1" stroke-linecap="butt" stroke-linejoin="miter" stroke-miterlimit="10" stroke-dasharray="" stroke-dashoffset="0" font-family="none" font-weight="none" font-size="none" text-anchor="none" style="mix-blend-mode: normal"></path></g><g transform="matrix(1,0,0,1,80,162.06969376979936)"><svg viewBox="0 0 160 35.86061246040127" height="35.86061246040127" width="160"><g><svg viewBox="0 0 160 35.86061246040127" height="35.86061246040127" width="160"><g><svg viewBox="0 0 160 35.86061246040127" height="35.86061246040127" width="160"><g><svg viewBox="0 0 160 35.86061246040127" height="35.86061246040127" width="160"><g id="SvgjsG1023"><svg viewBox="0 0 160 35.86061246040127" height="35.86061246040127" width="160" id="SvgjsSvg1022"><g><svg viewBox="0 0 160 35.86061246040127" height="35.86061246040127" width="160"><g transform="matrix(1,0,0,1,0,0)"><svg width="160" viewBox="2.25 -36.5 189.39 42.45" height="35.86061246040127" data-palette-color="url(#7effc203-e3cc-4f6c-9132-d107dce0ee5b)"></svg></g></svg></g></svg></g></svg></g><g></g></svg></g></svg></g></svg></g></svg></g><defs><mask></mask></defs><mask><g id="SvgjsG1021"><svg viewBox="0 0 320 360" height="360" width="320"><g><svg></svg></g><g><svg viewBox="0 0 320 360" height="360" width="320"><g></g><g transform="matrix(1,0,0,1,80,162.06969376979936)"><svg viewBox="0 0 160 35.86061246040127" height="35.86061246040127" width="160"><g><svg viewBox="0 0 160 35.86061246040127" height="35.86061246040127" width="160"><g><svg viewBox="0 0 160 35.86061246040127" height="35.86061246040127" width="160"><g><svg viewBox="0 0 160 35.86061246040127" height="35.86061246040127" width="160"><g id="SvgjsG1020"><svg viewBox="0 0 160 35.86061246040127" height="35.86061246040127" width="160" id="SvgjsSvg1019"><g><svg viewBox="0 0 160 35.86061246040127" height="35.86061246040127" width="160"><g transform="matrix(1,0,0,1,0,0)"><svg width="160" viewBox="2.25 -36.5 189.39 42.45" height="35.86061246040127" data-palette-color="url(#7effc203-e3cc-4f6c-9132-d107dce0ee5b)"></svg></g></svg></g></svg></g></svg></g><g></g></svg></g></svg></g></svg></g></svg></g><defs><mask></mask></defs></svg></g></mask></svg></g></mask><linearGradient x1="0" x2="1" y1="0.5" y2="0.5" id="8c017774-043a-4187-8f1e-848d5cbcf94c"><stop stop-color="#f00b51" offset="0"></stop><stop stop-color="#730062" offset="1"></stop></linearGradient></svg><rect width="320" height="360" fill="none" stroke="none" visibility="hidden"></rect></g></svg></g></svg>